HIERARCHY
ROOT Bip001_Pelvis
{
  OFFSET 34.4345 95.6767 -26.8758
  CHANNELS 6 Xposition Yposition Zposition Zrotation Xrotation Yrotation
  JOINT Bip001_Spine
  {
    OFFSET 1.4188e-005 10.2191 -0.0116013
    CHANNELS 3 Zrotation Xrotation Yrotation
    JOINT Bip001_L_Thigh
    {
      OFFSET 11.0458 -10.2192 0.0116197
      CHANNELS 3 Zrotation Xrotation Yrotation
      JOINT Bip001_L_Calf
      {
        OFFSET -0.707118 -44.0221 0.360014
        CHANNELS 3 Zrotation Xrotation Yrotation
        JOINT Bip001_L_Foot
        {
          OFFSET -0.651902 -40.5938 -3.56146
          CHANNELS 3 Zrotation Xrotation Yrotation
          JOINT Bip001_L_Toe0
          {
            OFFSET 0.0530839 -10.2181 13.1504
            CHANNELS 3 Zrotation Xrotation Yrotation
            End Site
            {
              OFFSET -1.02532e-005 0 7.55606
            }
          }
        }
      }
    }
    JOINT Bip001_R_Thigh
    {
      OFFSET -11.0458 -10.2191 0.0115893
      CHANNELS 3 Zrotation Xrotation Yrotation
      JOINT Bip001_R_Calf
      {
        OFFSET 0.706994 -44.0221 0.35984
        CHANNELS 3 Zrotation Xrotation Yrotation
        JOINT Bip001_R_Foot
        {
          OFFSET 0.651786 -40.5938 -3.5613
          CHANNELS 3 Zrotation Xrotation Yrotation
          JOINT Bip001_R_Toe0
          {
            OFFSET -0.0531479 -10.2181 13.1504
            CHANNELS 3 Zrotation Xrotation Yrotation
            End Site
            {
              OFFSET -1.02894e-005 0 7.55606
            }
          }
        }
      }
    }
    JOINT Bip001_Spine1
    {
      OFFSET 1.87041e-005 14.5736 1.08638
      CHANNELS 3 Zrotation Xrotation Yrotation
      JOINT Bip001_Spine2
      {
        OFFSET 2.24614e-005 14.5058 -1.69078
        CHANNELS 3 Zrotation Xrotation Yrotation
        JOINT Bip001_Neck
        {
          OFFSET 2.20278e-005 15.3945 -0.489414
          CHANNELS 3 Zrotation Xrotation Yrotation
          JOINT Bip001_L_Clavicle
          {
            OFFSET 6.06036 -0.000579998 0.00836775
            CHANNELS 3 Zrotation Xrotation Yrotation
            JOINT Bip001_L_UpperArm
            {
              OFFSET 11.5509 -0.0600302 0.00193952
              CHANNELS 3 Zrotation Xrotation Yrotation
              JOINT Bip001_L_Forearm
              {
                OFFSET 25.9523 0.0806089 -2.15551
                CHANNELS 3 Zrotation Xrotation Yrotation
                JOINT Bip001_L_Hand
                {
                  OFFSET 32.2475 0.153767 1.63968
                  CHANNELS 3 Zrotation Xrotation Yrotation
                  JOINT Bip001_L_Finger0
                  {
                    OFFSET 6.04639 -2.20976 5.90322
                    CHANNELS 3 Zrotation Xrotation Yrotation
                    End Site
                    {
                      OFFSET 4.22375 -1.43895 0.606485
                    }
                  }
                  JOINT Bip001_L_Finger1
                  {
                    OFFSET 11.0826 -0.704819 -0.198153
                    CHANNELS 3 Zrotation Xrotation Yrotation
                    End Site
                    {
                      OFFSET 6.20027 -0.397518 -0.0787166
                    }
                  }
                }
              }
            }
          }
          JOINT Bip001_R_Clavicle
          {
            OFFSET -6.06037 -0.000563197 0.00835105
            CHANNELS 3 Zrotation Xrotation Yrotation
            JOINT Bip001_R_UpperArm
            {
              OFFSET -11.5509 -0.0599978 0.00190698
              CHANNELS 3 Zrotation Xrotation Yrotation
              JOINT Bip001_R_Forearm
              {
                OFFSET -25.9523 0.0806822 -2.15589
                CHANNELS 3 Zrotation Xrotation Yrotation
                JOINT Bip001_R_Hand
                {
                  OFFSET -32.2475 0.153859 1.63989
                  CHANNELS 3 Zrotation Xrotation Yrotation
                  JOINT Bip001_R_Finger0
                  {
                    OFFSET -6.04641 -2.20976 5.90317
                    CHANNELS 3 Zrotation Xrotation Yrotation
                    End Site
                    {
                      OFFSET -4.22376 -1.43895 0.60647
                    }
                  }
                  JOINT Bip001_R_Finger1
                  {
                    OFFSET -11.0826 -0.704794 -0.198182
                    CHANNELS 3 Zrotation Xrotation Yrotation
                    End Site
                    {
                      OFFSET -6.20028 -0.397504 -0.0787333
                    }
                  }
                }
              }
            }
          }
          JOINT Bip001_Head
          {
            OFFSET 1.09673e-005 11.2744 2.05948
            CHANNELS 3 Zrotation Xrotation Yrotation
            End Site
            {
              OFFSET 2.89576e-005 20.8808 -2.77728e-005
            }
          }
        }
      }
    }
  }
}
MOTION
Frames:	6
Frame Time:	0.04
33.5131 95.9449 -29.1495 0.504075 -0.663864 3.23069 -0.322307 2.05964 0.178137 4.91302 -3.56704 9.88592 -0.173704 7.80289 -11.8477 2.44741 -4.06787 -0.0248769 0.706535 -3.86718 -0.275899 -3.41143 -2.92553 -3.52748 -0.315724 10.6479 0.527752 -5.54532 -9.15428 1.98153 2.25888 -7.61004 2.30479 -0.651496 4.12225 0.360839 -0.651372 4.12227 0.360778 1.6679 -8.88753 -3.87202 -25.0202 9.05334 1.80771 -56.0646 40.5682 4.61114 16.6152 -1.72017 -23.2208 8.91711 2.21861 -2.85523 -9.54166e-015 -3.18055e-015 3.18055e-015 -9.54166e-015 6.36111e-015 -0 17.1689 16.8894 25.079 68.1991 -54.5819 24.4805 -38.6841 -9.65482 116.413 -38.5844 7.49372 1.71297 8.27607e-032 -4.77083e-015 9.93923e-016 3.18055e-015 -3.18056e-015 1.98785e-015 -1.8629 -5.07488 -3.04179 
33.5079 95.9458 -29.1023 0.439965 -0.709709 3.43981 -0.293885 2.04029 0.180052 4.97463 -3.57377 9.94597 -0.163998 7.93391 -12.1236 2.44192 -4.14078 -0.0216745 0.687678 -3.84237 -0.251459 -3.33971 -2.69556 -3.51103 -0.305224 10.4418 0.504698 -5.60402 -9.07605 1.80002 2.25672 -7.61277 2.28579 -0.593786 4.07964 0.370651 -0.594258 4.07964 0.370749 1.3983 -8.67964 -3.92566 -24.8129 8.86829 1.76268 -55.9472 40.6587 4.67459 16.6017 -1.84951 -23.166 9.0773 2.65383 -2.81089 -3.18055e-015 0 6.36111e-015 -6.36111e-015 3.18056e-015 6.36111e-015 15.6113 16.8759 27.928 69.6552 -51.8398 32.4006 -40.1832 -10.9765 115.864 -38.8538 8.45029 1.08828 7.95139e-016 -4.77083e-015 -5.76475e-015 7.95139e-016 -4.77083e-015 -4.96962e-015 -1.73063 -5.05763 -3.17552 
33.508 95.9528 -29.1126 0.434662 -0.496393 3.63869 -0.2893 1.96256 0.204648 4.96653 -3.73653 9.78579 -0.196239 7.88566 -12.1666 2.56823 -4.0244 -0.0185589 0.748676 -3.91041 -0.310579 -3.35438 -2.79519 -3.31292 -0.20244 10.4195 0.409586 -5.68042 -8.99838 1.46514 2.25806 -7.61568 2.29014 -0.592132 3.92404 0.419635 -0.592359 3.92403 0.419678 1.30964 -8.50713 -4.02862 -24.7624 8.6716 1.79986 -55.9794 40.7521 4.88144 16.5164 -2.24844 -23.3174 9.03774 2.68682 -2.67067 3.18055e-015 6.36111e-015 -6.36111e-015 3.18055e-015 3.18056e-015 -9.54166e-015 13.6984 16.5963 30.3275 69.1096 -47.8464 37.8118 -41.7335 -11.419 113.627 -38.7363 8.97387 0.807895 7.95139e-016 3.18055e-015 -4.17448e-015 1.19271e-015 3.18056e-015 -1.2921e-015 -1.71019 -5.11231 -3.29221 
33.4742 95.9606 -29.0833 0.375383 -0.381625 3.92142 -0.290941 1.92905 0.179766 5.05277 -3.88831 9.76842 -0.168343 7.95834 -12.3713 2.37865 -4.126 -0.0161983 0.682857 -3.79065 -0.277182 -3.23566 -2.73717 -3.13091 -0.192119 10.2447 0.325513 -5.74853 -8.8762 1.13163 2.26153 -7.64924 2.29935 -0.588439 3.85713 0.36965 -0.588439 3.85713 0.369652 1.04514 -8.5822 -3.99617 -24.5398 8.70352 2.05988 -55.9463 40.8847 5.03696 16.6192 -2.42735 -23.6742 8.88976 2.43067 -2.92292 3.53112e-031 6.36111e-015 -3.18055e-015 1.05934e-030 9.54167e-015 -6.36111e-015 12.0155 16.5008 32.6114 66.8504 -43.1868 41.2385 -43.7907 -11.0245 110.027 -39.3008 8.83626 0.80773 -1.19271e-015 0 -9.44227e-016 -5.96354e-016 -6.36111e-015 9.93923e-017 -1.44194 -5.13553 -3.37717 
33.3628 95.9596 -29.0591 0.153702 -0.286825 4.19255 -0.254535 1.89204 0.193302 5.4052 -4.16925 9.72891 -0.274965 8.33421 -12.5763 2.20695 -4.40614 -0.0150481 0.574245 -3.64446 -0.18311 -2.90697 -2.59027 -3.10487 -0.251613 9.89906 0.307924 -5.85184 -8.70366 0.860216 2.26238 -7.63854 2.30134 -0.515911 3.78318 0.395 -0.515912 3.78318 0.39519 0.979687 -8.48363 -4.0553 -24.5621 8.59019 2.0866 -56.005 40.9853 5.26851 16.6932 -2.5864 -23.9404 8.78222 2.57816 -2.84954 -3.18055e-015 -3.18055e-015 -0 -0 -3.18056e-015 -0 10.5013 16.1927 34.4235 63.7169 -38.1822 43.5243 -45.7817 -9.64198 105.577 -39.0486 8.5836 1.24639 -9.06955e-016 0 1.13059e-015 -2.48481e-016 0 9.62863e-016 -1.38177 -5.28965 -3.46289 
33.2762 95.9596 -29.0401 -0.0452423 -0.191833 4.4494 -0.207244 1.86104 0.195374 5.66321 -4.43147 9.70006 -0.320901 8.6404 -12.7665 2.17133 -4.56029 -0.0142975 0.574616 -3.63078 -0.179631 -2.66282 -2.49224 -2.82371 -0.218033 9.61669 0.183828 -5.97692 -8.52449 0.482338 2.26324 -7.63329 2.30197 -0.421234 3.72132 0.404388 -0.421283 3.72133 0.404394 0.861421 -8.34783 -4.08712 -24.5708 8.4547 2.09202 -56.1329 41.0958 5.43099 16.7777 -2.68317 -24.1531 8.83716 2.56218 -2.79426 -7.06225e-031 6.36111e-015 6.36111e-015 -0 0 6.36111e-015 9.10044 15.7783 36.0221 58.3702 -32.3435 44.3464 -46.7483 -7.52312 98.6303 -37.1203 8.23746 2.20922 -7.95139e-016 -6.36111e-015 1.19271e-015 -1.19271e-015 -6.36111e-015 3.97569e-016 -1.25462 -5.36562 -3.54029 
